<svg xmlns="http://www.w3.org/2000/svg" width="1440" height="900" viewBox="0 0 1440 900" role="img" aria-label="Conductor study"><rect x="0" y="0" width="1440" height="900" rx="0" fill="#F6F5F0"/><text x="64" y="65" font-family="Helvetica Neue,Arial,sans-serif" font-size="16" font-weight="600" fill="#253B47" text-anchor="start">REPOMON / FLEET IDENTITIES</text><text x="1376" y="65" font-family="Helvetica Neue,Arial,sans-serif" font-size="18" font-weight="400" fill="#253B47" text-anchor="end">01</text><g transform="translate(140 154) scale(1.640625)" color="#253B47"><path d="M48 56H100A40 40 0 0 1 140 96A32 32 0 0 0 172 128H196 M48 128H196 M48 200H100A40 40 0 0 0 140 160A32 32 0 0 1 172 128" fill="none" stroke="currentColor" stroke-width="24" stroke-linecap="round" stroke-linejoin="round"/><rect x="28" y="36" width="40" height="40" rx="10" fill="currentColor"/><rect x="28" y="108" width="40" height="40" rx="10" fill="currentColor"/><rect x="28" y="180" width="40" height="40" rx="10" fill="currentColor"/><circle cx="196" cy="128" r="29" fill="#EF7846"/></g><g transform="translate(850 154) scale(1.640625)" color="#253B47"><g opacity="0.12"><path d="M48 56H100A40 40 0 0 1 140 96A32 32 0 0 0 172 128H196 M48 128H196 M48 200H100A40 40 0 0 0 140 160A32 32 0 0 1 172 128" fill="none" stroke="currentColor" stroke-width="24" stroke-linecap="round" stroke-linejoin="round"/><rect x="28" y="36" width="40" height="40" rx="10" fill="currentColor"/><rect x="28" y="108" width="40" height="40" rx="10" fill="currentColor"/><rect x="28" y="180" width="40" height="40" rx="10" fill="currentColor"/><circle cx="196" cy="128" r="29" fill="#EF7846"/></g><g fill="none" stroke="#738F95" stroke-width="0.85"><circle cx="100" cy="96" r="40"/><circle cx="172" cy="96" r="32"/><circle cx="100" cy="160" r="40"/><circle cx="172" cy="160" r="32"/><circle cx="196" cy="128" r="29"/><rect x="28" y="36" width="40" height="40" rx="10"/><rect x="28" y="108" width="40" height="40" rx="10"/><rect x="28" y="180" width="40" height="40" rx="10"/><path d="M12 56H244M12 128H244M12 200H244M140 16V240"/></g></g><text x="350" y="635" font-family="Helvetica Neue,Arial,sans-serif" font-size="54" font-weight="600" fill="#253B47" text-anchor="middle">repomon</text><text x="1060" y="635" font-family="Helvetica Neue,Arial,sans-serif" font-size="14" font-weight="400" fill="#677777" text-anchor="middle">GEOMETRIC CONSTRUCTION</text><path d="M64 705H1376" fill="none" stroke="#DADFD9"/><text x="64" y="765" font-family="Helvetica Neue,Arial,sans-serif" font-size="32" font-weight="600" fill="#253B47" text-anchor="start">Conductor</text><text x="64" y="812" font-family="Helvetica Neue,Arial,sans-serif" font-size="23" font-weight="400" fill="#253B47" text-anchor="start">Many agents. One control point.</text><text x="64" y="849" font-family="Helvetica Neue,Arial,sans-serif" font-size="18" font-weight="400" fill="#677777" text-anchor="start">Separate repo lanes meet a shared command node.</text><text x="1376" y="818" font-family="Helvetica Neue,Arial,sans-serif" font-size="16" font-weight="400" fill="#677777" text-anchor="end">Three lanes · R40 / R32 routing · one R29 hub</text></svg>