<svg xmlns="http://www.w3.org/2000/svg" width="1200" height="850" viewBox="0 0 1200 850"><rect x="0" y="0" width="1200" height="850" rx="0" fill="#F6F5F0"/><text x="56" y="60" font-family="Helvetica Neue,Arial,sans-serif" font-size="25" font-weight="600" text-anchor="start" fill="#253B47">04 / Uplink</text><text x="1144" y="60" font-family="Helvetica Neue,Arial,sans-serif" font-size="17" font-weight="600" text-anchor="end" fill="#253B47">REPOMON</text><g transform="translate(390 136) scale(1.640625)"><g transform="rotate(-90 128 128)"><path d="M46 56H98A40 40 0 0 1 138 96A32 32 0 0 0 170 128H192 M46 128H192 M46 200H98A40 40 0 0 0 138 160A32 32 0 0 1 170 128" fill="none" stroke="#253B47" stroke-width="22" stroke-linecap="round" stroke-linejoin="round"/><rect x="26" y="38" width="36" height="36" rx="10" fill="#253B47"/><rect x="26" y="110" width="36" height="36" rx="10" fill="#253B47"/><rect x="26" y="182" width="36" height="36" rx="10" fill="#253B47"/><rect x="166" y="102" width="52" height="52" rx="15" fill="#EF7846"/></g></g><text x="600" y="632" font-family="Helvetica Neue,Arial,sans-serif" font-size="62" font-weight="600" text-anchor="middle" fill="#253B47">repomon</text><text x="600" y="752" font-family="Helvetica Neue,Arial,sans-serif" font-size="23" font-weight="400" text-anchor="middle" fill="#253B47">An upright fleet feeding shared control.</text></svg>