<svg xmlns="http://www.w3.org/2000/svg" width="1200" height="850" viewBox="0 0 1200 850"><rect x="0" y="0" width="1200" height="850" rx="0" fill="#F6F5F0"/><text x="56" y="60" font-family="Helvetica Neue,Arial,sans-serif" font-size="25" font-weight="600" text-anchor="start" fill="#253B47">06 / Harbor</text><text x="1144" y="60" font-family="Helvetica Neue,Arial,sans-serif" font-size="17" font-weight="600" text-anchor="end" fill="#253B47">REPOMON</text><g transform="translate(390 136) scale(1.640625)"><path d="M102 40H174A44 44 0 0 1 218 84V172A44 44 0 0 1 174 216H102" fill="none" stroke="#253B47" stroke-width="24" stroke-linecap="round" stroke-linejoin="round"/><path d="M42 72H106A40 40 0 0 1 146 112V128 M42 128H164 M42 184H106A40 40 0 0 0 146 144V128" fill="none" stroke="#253B47" stroke-width="20" stroke-linecap="round" stroke-linejoin="round"/><rect x="24" y="55" width="34" height="34" rx="9" fill="#253B47"/><rect x="24" y="111" width="34" height="34" rx="9" fill="#253B47"/><rect x="24" y="167" width="34" height="34" rx="9" fill="#253B47"/><rect x="138" y="102" width="52" height="52" rx="15" fill="#EF7846"/></g><text x="600" y="632" font-family="Helvetica Neue,Arial,sans-serif" font-size="62" font-weight="600" text-anchor="middle" fill="#253B47">repomon</text><text x="600" y="752" font-family="Helvetica Neue,Arial,sans-serif" font-size="23" font-weight="400" text-anchor="middle" fill="#253B47">Connected agents within one workspace.</text></svg>