<svg xmlns="http://www.w3.org/2000/svg" width="256" height="256" viewBox="0 0 256 256"><path d="M46 56H98A40 40 0 0 1 138 96A32 32 0 0 0 170 128H194 M46 128H194 M46 200H98A40 40 0 0 0 138 160A32 32 0 0 1 170 128" fill="none" stroke="#253B47" stroke-width="22" stroke-linecap="round" stroke-linejoin="round"/><rect x="28" y="38" width="36" height="36" rx="10" fill="#253B47"/><rect x="28" y="110" width="36" height="36" rx="10" fill="#253B47"/><rect x="28" y="182" width="36" height="36" rx="10" fill="#253B47"/><rect x="168" y="102" width="52" height="52" rx="15" fill="#253B47"/></svg>