<svg xmlns="http://www.w3.org/2000/svg" width="1200" height="850" viewBox="0 0 1200 850"><rect x="0" y="0" width="1200" height="850" rx="0" fill="#F6F5F0"/><text x="56" y="60" font-family="Helvetica Neue,Arial,sans-serif" font-size="25" font-weight="600" text-anchor="start" fill="#253B47">A2 / Compact</text><text x="1144" y="60" font-family="Helvetica Neue,Arial,sans-serif" font-size="17" font-weight="400" text-anchor="end" fill="#253B47">Bolder, tighter proportions</text><g transform="translate(390 134) scale(1.640625)"><path d="M50 64H100A36 36 0 0 1 136 100A28 28 0 0 0 164 128H190 M50 128H190 M50 192H100A36 36 0 0 0 136 156A28 28 0 0 1 164 128" fill="none" stroke="#253B47" stroke-width="28" stroke-linecap="round" stroke-linejoin="round"/><rect x="28" y="43" width="42" height="42" rx="12" fill="#253B47"/><rect x="28" y="107" width="42" height="42" rx="12" fill="#253B47"/><rect x="28" y="171" width="42" height="42" rx="12" fill="#253B47"/><rect x="162" y="100" width="56" height="56" rx="16" fill="#EF7846"/></g><text x="600" y="632" font-family="Helvetica Neue,Arial,sans-serif" font-size="62" font-weight="600" text-anchor="middle" fill="#253B47">repomon</text><text x="600" y="752" font-family="Helvetica Neue,Arial,sans-serif" font-size="23" font-weight="400" text-anchor="middle" fill="#253B47">Three independent work lanes. One command point.</text></svg>