<svg xmlns="http://www.w3.org/2000/svg" width="1080" height="320" viewBox="0 0 1080 320" role="img" aria-labelledby="title desc">
  <title id="title">repomon</title>
  <desc id="desc">An orange branching R with three terminal nodes beside a charcoal lowercase repomon wordmark.</desc>
  <g transform="translate(54 48)" fill="none" stroke="#F46B35" stroke-width="28" stroke-linecap="round" stroke-linejoin="round">
    <path d="M38 184V40h83c68 0 68 80 0 80H38m62 0 66 64"/>
  </g>
  <g fill="#F46B35">
    <circle cx="92" cy="232" r="22"/>
    <circle cx="92" cy="88" r="22"/>
    <circle cx="220" cy="232" r="22"/>
  </g>
  <g fill="none" stroke="#20252B" stroke-width="16" stroke-linecap="round" stroke-linejoin="round" transform="translate(310 110)">
    <path d="M0 90V25m0 25c0-27 13-31 33-31"/>
    <path d="M67 55h61c0-23-10-36-30-36S65 34 65 55c0 26 13 38 34 38 11 0 20-3 27-9"/>
    <path d="M159 124V21m0 34c0-22 13-36 32-36s33 14 33 36-14 38-33 38-32-16-32-38"/>
    <path d="M323 56c0-23-13-37-33-37s-34 14-34 37 14 37 34 37 33-14 33-37Z"/>
    <path d="M355 90V21m0 24c0-16 11-26 25-26s25 10 25 26v45m0-45c0-16 11-26 25-26s25 10 25 26v45"/>
    <path d="M554 56c0-23-13-37-33-37s-34 14-34 37 14 37 34 37 33-14 33-37Z"/>
    <path d="M586 90V21m0 26c0-17 12-28 29-28s29 11 29 28v43"/>
  </g>
</svg>
