<svg xmlns="http://www.w3.org/2000/svg" width="256" height="256" viewBox="0 0 256 256"><g transform="translate(0 0) scale(1.0)"><path d="M38 56H58A30 30 0 0 1 88 86V98A30 30 0 0 0 118 128H128 M38 128H128 M38 200H58A30 30 0 0 0 88 170V158A30 30 0 0 1 118 128" fill="none" stroke="#253B47" stroke-width="20" stroke-linecap="round" stroke-linejoin="round"/><rect x="20" y="39" width="34" height="34" rx="10" fill="#253B47"/><rect x="20" y="111" width="34" height="34" rx="10" fill="#253B47"/><rect x="20" y="183" width="34" height="34" rx="10" fill="#253B47"/><g transform="translate(256 0) scale(-1 1)"><path d="M38 56H58A30 30 0 0 1 88 86V98A30 30 0 0 0 118 128H128 M38 128H128 M38 200H58A30 30 0 0 0 88 170V158A30 30 0 0 1 118 128" fill="none" stroke="#253B47" stroke-width="20" stroke-linecap="round" stroke-linejoin="round"/><rect x="20" y="39" width="34" height="34" rx="10" fill="#253B47"/><rect x="20" y="111" width="34" height="34" rx="10" fill="#253B47"/><rect x="20" y="183" width="34" height="34" rx="10" fill="#253B47"/></g><rect x="100" y="100" width="56" height="56" rx="16" fill="#EF7846"/></g></svg>