<svg xmlns="http://www.w3.org/2000/svg" width="256" height="256" viewBox="0 0 256 256"><g transform="translate(0 0) scale(1.0)"><g transform="translate(128 128) scale(1 1) translate(-128 -128)"><path d="M46 46H70A34 34 0 0 1 104 80V104A24 24 0 0 0 128 128" fill="none" stroke="#253B47" stroke-width="22" stroke-linecap="round" stroke-linejoin="round"/><rect x="28" y="28" width="36" height="36" rx="11" fill="#253B47"/></g><g transform="translate(128 128) scale(-1 1) translate(-128 -128)"><path d="M46 46H70A34 34 0 0 1 104 80V104A24 24 0 0 0 128 128" fill="none" stroke="#253B47" stroke-width="22" stroke-linecap="round" stroke-linejoin="round"/><rect x="28" y="28" width="36" height="36" rx="11" fill="#253B47"/></g><g transform="translate(128 128) scale(1 -1) translate(-128 -128)"><path d="M46 46H70A34 34 0 0 1 104 80V104A24 24 0 0 0 128 128" fill="none" stroke="#253B47" stroke-width="22" stroke-linecap="round" stroke-linejoin="round"/><rect x="28" y="28" width="36" height="36" rx="11" fill="#253B47"/></g><g transform="translate(128 128) scale(-1 -1) translate(-128 -128)"><path d="M46 46H70A34 34 0 0 1 104 80V104A24 24 0 0 0 128 128" fill="none" stroke="#253B47" stroke-width="22" stroke-linecap="round" stroke-linejoin="round"/><rect x="28" y="28" width="36" height="36" rx="11" fill="#253B47"/></g><rect x="100" y="100" width="56" height="56" rx="16" fill="#EF7846"/></g></svg>