<svg xmlns="http://www.w3.org/2000/svg" width="1200" height="850" viewBox="0 0 1200 850"><rect x="0" y="0" width="1200" height="850" rx="0" fill="#F6F5F0"/><text x="56" y="60" font-family="Helvetica Neue,Arial,sans-serif" font-size="25" font-weight="600" text-anchor="start" fill="#253B47">A / Lane Hub</text><text x="1144" y="60" font-family="Helvetica Neue,Arial,sans-serif" font-size="17" font-weight="400" text-anchor="end" fill="#253B47">Closest to 01</text><g transform="translate(390 134) scale(1.640625)"><path d="M48 56H96A40 40 0 0 1 136 96A32 32 0 0 0 168 128H194 M48 128H194 M48 200H96A40 40 0 0 0 136 160A32 32 0 0 1 168 128" fill="none" stroke="#253B47" stroke-width="24" stroke-linecap="round" stroke-linejoin="round"/><rect x="28" y="36" width="40" height="40" rx="11" fill="#253B47"/><rect x="28" y="108" width="40" height="40" rx="11" fill="#253B47"/><rect x="28" y="180" width="40" height="40" rx="11" fill="#253B47"/><rect x="167" y="101" width="54" height="54" rx="15" fill="#EF7846"/></g><text x="600" y="628" font-family="Helvetica Neue,Arial,sans-serif" font-size="62" font-weight="600" text-anchor="middle" fill="#253B47">repomon</text><text x="600" y="748" font-family="Helvetica Neue,Arial,sans-serif" font-size="23" font-weight="400" text-anchor="middle" fill="#253B47">Three independent work lanes meet one command module.</text></svg>