<svg xmlns="http://www.w3.org/2000/svg" width="1200" height="850" viewBox="0 0 1200 850"><rect x="0" y="0" width="1200" height="850" rx="0" fill="#F6F5F0"/><text x="56" y="60" font-family="Helvetica Neue,Arial,sans-serif" font-size="25" font-weight="600" text-anchor="start" fill="#253B47">C / Command Mesh</text><text x="1144" y="60" font-family="Helvetica Neue,Arial,sans-serif" font-size="17" font-weight="400" text-anchor="end" fill="#253B47">A connected 04</text><g transform="translate(390 134) scale(1.640625)"><g transform="rotate(0 128 128)"><path d="M44 98V66A22 22 0 0 1 66 44H98" fill="none" stroke="#253B47" stroke-width="26" stroke-linecap="round" stroke-linejoin="round"/><path d="M53 53L108 108" fill="none" stroke="#253B47" stroke-width="20" stroke-linecap="round" stroke-linejoin="round"/></g><g transform="rotate(90 128 128)"><path d="M44 98V66A22 22 0 0 1 66 44H98" fill="none" stroke="#253B47" stroke-width="26" stroke-linecap="round" stroke-linejoin="round"/><path d="M53 53L108 108" fill="none" stroke="#253B47" stroke-width="20" stroke-linecap="round" stroke-linejoin="round"/></g><g transform="rotate(180 128 128)"><path d="M44 98V66A22 22 0 0 1 66 44H98" fill="none" stroke="#253B47" stroke-width="26" stroke-linecap="round" stroke-linejoin="round"/><path d="M53 53L108 108" fill="none" stroke="#253B47" stroke-width="20" stroke-linecap="round" stroke-linejoin="round"/></g><g transform="rotate(270 128 128)"><path d="M44 98V66A22 22 0 0 1 66 44H98" fill="none" stroke="#253B47" stroke-width="26" stroke-linecap="round" stroke-linejoin="round"/><path d="M53 53L108 108" fill="none" stroke="#253B47" stroke-width="20" stroke-linecap="round" stroke-linejoin="round"/></g><rect x="98" y="98" width="60" height="60" rx="16" fill="#EF7846"/></g><text x="600" y="628" font-family="Helvetica Neue,Arial,sans-serif" font-size="62" font-weight="600" text-anchor="middle" fill="#253B47">repomon</text><text x="600" y="748" font-family="Helvetica Neue,Arial,sans-serif" font-size="23" font-weight="400" text-anchor="middle" fill="#253B47">Separate workspace corners form one connected system.</text></svg>