<svg xmlns="http://www.w3.org/2000/svg" width="1440" height="900" viewBox="0 0 1440 900" role="img" aria-label="Switchyard — mark and actual construction geometry"><rect x="0" y="0" width="1440" height="900" fill="#F5F4EF"/><text x="64" y="65" fill="#202923" font-family="Helvetica Neue,Arial,sans-serif" font-size="16" font-weight="600" text-anchor="start">REPOMON / GEOMETRIC EXPLORATION</text><text x="1376" y="65" fill="#202923" font-family="Helvetica Neue,Arial,sans-serif" font-size="18" font-weight="400" text-anchor="end">01</text><g transform="translate(162 154) scale(1.640625)" color="#E9673D"><defs><mask id="r-cut-162-154-420"><rect width="256" height="256" fill="white"/><circle cx="116" cy="100" r="28" fill="black"/></mask></defs><g fill="currentColor" mask="url(#r-cut-162-154-420)"><rect x="40" y="36" width="36" height="184" /><rect x="40" y="36" width="76" height="36" /><circle cx="116" cy="100" r="64" /><path d="M94 140H146L222 216H170Z"/></g></g><g transform="translate(858 154) scale(1.640625)" color="#E9673D"><g opacity="0.12"><defs><mask id="r-cut-858-154-420"><rect width="256" height="256" fill="white"/><circle cx="116" cy="100" r="28" fill="black"/></mask></defs><g fill="currentColor" mask="url(#r-cut-858-154-420)"><rect x="40" y="36" width="36" height="184" /><rect x="40" y="36" width="76" height="36" /><circle cx="116" cy="100" r="64" /><path d="M94 140H146L222 216H170Z"/></g></g><g fill="none" stroke="#73938B" stroke-width="0.8" opacity="0.68"><circle cx="116" cy="100" r="64" /><circle cx="116" cy="100" r="28" /><rect x="40" y="36" width="36" height="184" /><rect x="40" y="36" width="76" height="36" /><path d="M20 100L236 100"/><path d="M116 12L116 236"/><path d="M70 116L224 270"/><path d="M112 106L240 234"/></g></g><text x="372" y="638" fill="#202923" font-family="Helvetica Neue,Arial,sans-serif" font-size="56" font-weight="600" text-anchor="middle">repomon</text><text x="1068" y="638" fill="#68746D" font-family="Helvetica Neue,Arial,sans-serif" font-size="14" font-weight="500" text-anchor="middle">CONSTRUCTION</text><path d="M64 714H1376" stroke="#D8DBD4"/><text x="64" y="779" fill="#202923" font-family="Helvetica Neue,Arial,sans-serif" font-size="34" font-weight="600" text-anchor="start">Switchyard</text><text x="64" y="823" fill="#58655D" font-family="Helvetica Neue,Arial,sans-serif" font-size="21" font-weight="400" text-anchor="start">A letter built for branching work.</text><text x="1376" y="804" fill="#58655D" font-family="Helvetica Neue,Arial,sans-serif" font-size="18" font-weight="400" text-anchor="end">R64 / R28 · 36-unit stem · 45° branch</text></svg>