<svg xmlns="http://www.w3.org/2000/svg" width="256" height="256" viewBox="0 0 256 256" role="img" aria-label="Repomon Workspaces"><g color="#7352C6"><path d="M50 162H46A12 12 0 0 1 34 150V46A12 12 0 0 1 46 34H150A12 12 0 0 1 162 46V50" fill="none" stroke="currentColor" stroke-width="18" stroke-linecap="round"/><path d="M80 192H76A12 12 0 0 1 64 180V76A12 12 0 0 1 76 64H180A12 12 0 0 1 192 76V80" fill="none" stroke="currentColor" stroke-width="18" stroke-linecap="round"/><path d="M110 222H106A12 12 0 0 1 94 210V106A12 12 0 0 1 106 94H210A12 12 0 0 1 222 106V110" fill="none" stroke="currentColor" stroke-width="18" stroke-linecap="round"/><rect x="126" y="126" width="64" height="64" rx="12" fill="currentColor"/></g></svg>