<svg xmlns="http://www.w3.org/2000/svg" width="1800" height="970" viewBox="0 0 1800 970" role="img" aria-label="Five geometric Repomon logo concepts"><rect x="0" y="0" width="1800" height="970" fill="#F5F4EF"/><text x="62" y="72" fill="#202923" font-family="Helvetica Neue,Arial,sans-serif" font-size="22" font-weight="650" text-anchor="start">REPOMON</text><text x="62" y="120" fill="#202923" font-family="Helvetica Neue,Arial,sans-serif" font-size="38" font-weight="500" text-anchor="start">Five marks. Built from geometry.</text><text x="1738" y="72" fill="#202923" font-family="Helvetica Neue,Arial,sans-serif" font-size="15" font-weight="400" text-anchor="end">EXPLORATION / 02</text><g transform="translate(82 200) scale(1.0)" color="#E9673D"><defs><mask id="r-cut-82-200-256"><rect width="256" height="256" fill="white"/><circle cx="116" cy="100" r="28" fill="black"/></mask></defs><g fill="currentColor" mask="url(#r-cut-82-200-256)"><rect x="40" y="36" width="36" height="184" /><rect x="40" y="36" width="76" height="36" /><circle cx="116" cy="100" r="64" /><path d="M94 140H146L222 216H170Z"/></g></g><text x="210" y="514" fill="#202923" font-family="Helvetica Neue,Arial,sans-serif" font-size="23" font-weight="500" text-anchor="middle">01 / Switchyard</text><g transform="translate(110 594) scale(0.78125)" color="#E9673D"><g opacity="0.12"><defs><mask id="r-cut-110-594-200"><rect width="256" height="256" fill="white"/><circle cx="116" cy="100" r="28" fill="black"/></mask></defs><g fill="currentColor" mask="url(#r-cut-110-594-200)"><rect x="40" y="36" width="36" height="184" /><rect x="40" y="36" width="76" height="36" /><circle cx="116" cy="100" r="64" /><path d="M94 140H146L222 216H170Z"/></g></g><g fill="none" stroke="#73938B" stroke-width="0.8" opacity="0.68"><circle cx="116" cy="100" r="64" /><circle cx="116" cy="100" r="28" /><rect x="40" y="36" width="36" height="184" /><rect x="40" y="36" width="76" height="36" /><path d="M20 100L236 100"/><path d="M116 12L116 236"/><path d="M70 116L224 270"/><path d="M112 106L240 234"/></g></g><text x="210" y="847" fill="#68746D" font-family="Helvetica Neue,Arial,sans-serif" font-size="12" font-weight="400" text-anchor="middle">CIRCLES + LINES</text><g transform="translate(430 200) scale(1.0)" color="#2869CC"><defs><mask id="hub-cut-430-200-256"><rect width="256" height="256" fill="white"/><circle cx="128" cy="128" r="34" fill="black"/></mask></defs><g fill="currentColor" mask="url(#hub-cut-430-200-256)"><circle cx="128.0" cy="78.0" r="56" /><circle cx="171.30127018922195" cy="153.0" r="56" /><circle cx="84.69872981077806" cy="153.0" r="56" /></g></g><text x="558" y="514" fill="#202923" font-family="Helvetica Neue,Arial,sans-serif" font-size="23" font-weight="500" text-anchor="middle">02 / Common</text><g transform="translate(458 594) scale(0.78125)" color="#2869CC"><g opacity="0.12"><defs><mask id="hub-cut-458-594-200"><rect width="256" height="256" fill="white"/><circle cx="128" cy="128" r="34" fill="black"/></mask></defs><g fill="currentColor" mask="url(#hub-cut-458-594-200)"><circle cx="128.0" cy="78.0" r="56" /><circle cx="171.30127018922195" cy="153.0" r="56" /><circle cx="84.69872981077806" cy="153.0" r="56" /></g></g><g fill="none" stroke="#73938B" stroke-width="0.8" opacity="0.68"><circle cx="128.0" cy="78.0" r="56" /><circle cx="171.30127018922195" cy="153.0" r="56" /><circle cx="84.69872981077806" cy="153.0" r="56" /><circle cx="128" cy="128" r="34" /><circle cx="128" cy="128" r="50" /><path d="M128.0 78.0L171.30127018922195 153.0"/><path d="M128 128L128.0 78.0"/><path d="M171.30127018922195 153.0L84.69872981077806 153.0"/><path d="M128 128L171.30127018922195 153.0"/><path d="M84.69872981077806 153.0L128.0 78.0"/><path d="M128 128L84.69872981077806 153.0"/></g></g><text x="558" y="847" fill="#68746D" font-family="Helvetica Neue,Arial,sans-serif" font-size="12" font-weight="400" text-anchor="middle">CIRCLES + LINES</text><g transform="translate(778 200) scale(1.0)" color="#215545"><defs><mask id="owl-cut-778-200-256"><rect width="256" height="256" fill="white"/><circle cx="128" cy="20" r="64" fill="black"/><circle cx="92" cy="126" r="23" fill="black"/><circle cx="164" cy="126" r="23" fill="black"/><path d="M118 157H138L128 172Z" fill="black"/></mask></defs><g fill="currentColor"><circle cx="128" cy="132" r="92" mask="url(#owl-cut-778-200-256)"/><circle cx="96" cy="126" r="9" /><circle cx="160" cy="126" r="9" /></g></g><text x="906" y="514" fill="#202923" font-family="Helvetica Neue,Arial,sans-serif" font-size="23" font-weight="500" text-anchor="middle">03 / Lookout</text><g transform="translate(806 594) scale(0.78125)" color="#215545"><g opacity="0.12"><defs><mask id="owl-cut-806-594-200"><rect width="256" height="256" fill="white"/><circle cx="128" cy="20" r="64" fill="black"/><circle cx="92" cy="126" r="23" fill="black"/><circle cx="164" cy="126" r="23" fill="black"/><path d="M118 157H138L128 172Z" fill="black"/></mask></defs><g fill="currentColor"><circle cx="128" cy="132" r="92" mask="url(#owl-cut-806-594-200)"/><circle cx="96" cy="126" r="9" /><circle cx="160" cy="126" r="9" /></g></g><g fill="none" stroke="#73938B" stroke-width="0.8" opacity="0.68"><circle cx="128" cy="132" r="92" /><circle cx="128" cy="20" r="64" /><circle cx="92" cy="126" r="23" /><circle cx="164" cy="126" r="23" /><circle cx="96" cy="126" r="9" /><circle cx="160" cy="126" r="9" /><path d="M128 8L128 242"/><path d="M16 126L240 126"/><path d="M36 224L220 224"/></g></g><text x="906" y="847" fill="#68746D" font-family="Helvetica Neue,Arial,sans-serif" font-size="12" font-weight="400" text-anchor="middle">CIRCLES + LINES</text><g transform="translate(1126 200) scale(1.0)" color="#7352C6"><path d="M50 162H46A12 12 0 0 1 34 150V46A12 12 0 0 1 46 34H150A12 12 0 0 1 162 46V50" fill="none" stroke="currentColor" stroke-width="18" stroke-linecap="round"/><path d="M80 192H76A12 12 0 0 1 64 180V76A12 12 0 0 1 76 64H180A12 12 0 0 1 192 76V80" fill="none" stroke="currentColor" stroke-width="18" stroke-linecap="round"/><path d="M110 222H106A12 12 0 0 1 94 210V106A12 12 0 0 1 106 94H210A12 12 0 0 1 222 106V110" fill="none" stroke="currentColor" stroke-width="18" stroke-linecap="round"/><rect x="126" y="126" width="64" height="64" rx="12" fill="currentColor"/></g><text x="1254" y="514" fill="#202923" font-family="Helvetica Neue,Arial,sans-serif" font-size="23" font-weight="500" text-anchor="middle">04 / Workspaces</text><g transform="translate(1154 594) scale(0.78125)" color="#7352C6"><g opacity="0.12"><path d="M50 162H46A12 12 0 0 1 34 150V46A12 12 0 0 1 46 34H150A12 12 0 0 1 162 46V50" fill="none" stroke="currentColor" stroke-width="18" stroke-linecap="round"/><path d="M80 192H76A12 12 0 0 1 64 180V76A12 12 0 0 1 76 64H180A12 12 0 0 1 192 76V80" fill="none" stroke="currentColor" stroke-width="18" stroke-linecap="round"/><path d="M110 222H106A12 12 0 0 1 94 210V106A12 12 0 0 1 106 94H210A12 12 0 0 1 222 106V110" fill="none" stroke="currentColor" stroke-width="18" stroke-linecap="round"/><rect x="126" y="126" width="64" height="64" rx="12" fill="currentColor"/></g><g fill="none" stroke="#73938B" stroke-width="0.8" opacity="0.68"><rect x="34" y="34" width="128" height="128" rx="12"/><circle cx="46" cy="46" r="12" /><path d="M46 46L162 162"/><rect x="64" y="64" width="128" height="128" rx="12"/><circle cx="76" cy="76" r="12" /><path d="M76 76L192 192"/><rect x="94" y="94" width="128" height="128" rx="12"/><circle cx="106" cy="106" r="12" /><path d="M106 106L222 222"/><rect x="126" y="126" width="64" height="64" rx="12"/><path d="M12 12L240 240"/></g></g><text x="1254" y="847" fill="#68746D" font-family="Helvetica Neue,Arial,sans-serif" font-size="12" font-weight="400" text-anchor="middle">CIRCLES + LINES</text><g transform="translate(1474 200) scale(1.0)" color="#263B48"><defs><mask id="bridge-cut-1474-200-256"><rect width="256" height="256" fill="white"/><circle cx="82" cy="128" r="28" fill="black"/><circle cx="174" cy="128" r="28" fill="black"/><rect x="82" y="100" width="92" height="56" fill="black"/><path d="M117 56H130L151 200H138Z" fill="black"/></mask></defs><g fill="currentColor" mask="url(#bridge-cut-1474-200-256)"><circle cx="82" cy="128" r="60" /><circle cx="174" cy="128" r="60" /><rect x="82" y="68" width="92" height="120" /></g></g><text x="1602" y="514" fill="#202923" font-family="Helvetica Neue,Arial,sans-serif" font-size="23" font-weight="500" text-anchor="middle">05 / Pair</text><g transform="translate(1502 594) scale(0.78125)" color="#263B48"><g opacity="0.12"><defs><mask id="bridge-cut-1502-594-200"><rect width="256" height="256" fill="white"/><circle cx="82" cy="128" r="28" fill="black"/><circle cx="174" cy="128" r="28" fill="black"/><rect x="82" y="100" width="92" height="56" fill="black"/><path d="M117 56H130L151 200H138Z" fill="black"/></mask></defs><g fill="currentColor" mask="url(#bridge-cut-1502-594-200)"><circle cx="82" cy="128" r="60" /><circle cx="174" cy="128" r="60" /><rect x="82" y="68" width="92" height="120" /></g></g><g fill="none" stroke="#73938B" stroke-width="0.8" opacity="0.68"><circle cx="82" cy="128" r="60" /><circle cx="174" cy="128" r="60" /><circle cx="82" cy="128" r="28" /><circle cx="174" cy="128" r="28" /><path d="M12 68L244 68"/><path d="M12 100L244 100"/><path d="M12 156L244 156"/><path d="M12 188L244 188"/><path d="M82 20L82 236"/><path d="M174 20L174 236"/><path d="M117 56L138 200"/><path d="M130 56L151 200"/></g></g><text x="1602" y="847" fill="#68746D" font-family="Helvetica Neue,Arial,sans-serif" font-size="12" font-weight="400" text-anchor="middle">CIRCLES + LINES</text><text x="62" y="933" fill="#68746D" font-family="Helvetica Neue,Arial,sans-serif" font-size="18" font-weight="400" text-anchor="start">Editable SVG concepts · Construction guides follow the actual source shapes.</text></svg>