<svg xmlns="http://www.w3.org/2000/svg" width="1200" height="850" viewBox="0 0 1200 850"><rect x="0" y="0" width="1200" height="850" rx="0" fill="#F7F5F0"/><text x="56" y="60" font-family="Helvetica Neue,Arial,sans-serif" font-size="25" font-weight="600" text-anchor="start" fill="#253B47">02 / Counterweight</text><text x="1144" y="60" font-family="Helvetica Neue,Arial,sans-serif" font-size="17" font-weight="600" text-anchor="end" fill="#253B47">REPOMON</text><g transform="translate(390 124) scale(1.640625)"><g transform="translate(0 -8)"><path d="M52 32H134L196 104H80A40 40 0 0 1 40 64V44A12 12 0 0 1 52 32Z" fill="#253B47" /></g><g transform="rotate(180 128 128)"><g transform="translate(0 -8)"><path d="M52 32H134L196 104H80A40 40 0 0 1 40 64V44A12 12 0 0 1 52 32Z" fill="#253B47" /></g></g><circle cx="128" cy="128" r="22" fill="#EF7846"/></g><text x="600" y="632" font-family="Helvetica Neue,Arial,sans-serif" font-size="62" font-weight="600" text-anchor="middle" fill="#253B47">repomon</text><text x="600" y="752" font-family="Helvetica Neue,Arial,sans-serif" font-size="23" font-weight="400" text-anchor="middle" fill="#253B47">A shared center of gravity.</text></svg>